<svg xmlns="http://www.w3.org/2000/svg" fill="none" viewBox="-0.75 -0.75 48 48" id="Shipping-Truck-Fast--Streamline-Ultimate" height="48" width="48"><desc>Shipping Truck Fast Streamline Icon: https://streamlinehq.com</desc><path stroke="#7630a0" stroke-linecap="round" stroke-linejoin="round" stroke-miterlimit="10" d="M19.859375 11.625h10.65625c1.55 0 2.90625 1.35625 2.90625 2.90625v13.950000000000001" stroke-width="1.5"></path><path stroke="#7630a0" stroke-linecap="round" stroke-linejoin="round" stroke-miterlimit="10" d="M17.921875 32.9375h-9.6875" stroke-width="1.5"></path><path stroke="#7630a0" stroke-linecap="round" stroke-linejoin="round" stroke-miterlimit="10" d="M33.421875 14.53125h5.8125c3.2937499999999997 0 5.8125 2.5187500000000003 5.8125 5.8125v9.6875c0 1.55 -1.35625 2.90625 -2.90625 2.90625h-4.2625" stroke-width="1.5"></path><path stroke="#7630a0" stroke-linecap="round" stroke-linejoin="round" stroke-miterlimit="10" d="M34.196875 35.84355625c2.0330187499999997 0 3.68125 -1.6480375 3.68125 -3.68125 0 -2.0330187499999997 -1.64823125 -3.6810562499999997 -3.68125 -3.6810562499999997s-3.68125 1.6480375 -3.68125 3.6810562499999997c0 2.0332125000000003 1.64823125 3.68125 3.68125 3.68125Z" stroke-width="1.5"></path><path stroke="#7630a0" stroke-linecap="round" stroke-linejoin="round" stroke-miterlimit="10" d="M21.603125000000002 35.84355625c2.0330187499999997 0 3.68125 -1.6480375 3.68125 -3.68125 0 -2.0330187499999997 -1.64823125 -3.6810562499999997 -3.68125 -3.6810562499999997s-3.68125 1.6480375 -3.68125 3.6810562499999997c0 2.0332125000000003 1.64823125 3.68125 3.68125 3.68125Z" stroke-width="1.5"></path><path stroke="#7630a0" stroke-linecap="round" stroke-linejoin="round" stroke-miterlimit="10" d="M30.515625 32.9375h-4.84375" stroke-width="1.5"></path><path stroke="#7630a0" stroke-linecap="round" stroke-linejoin="round" stroke-miterlimit="10" d="M45.046875 20.34375h-5.8125" stroke-width="1.5"></path><path stroke="#7630a0" stroke-linecap="round" stroke-linejoin="round" stroke-miterlimit="10" d="M14.046875 10.65625h-3.875" stroke-width="1.5"></path><path stroke="#7630a0" stroke-linecap="round" stroke-linejoin="round" stroke-miterlimit="10" d="M14.046875 18.40625h-7.75" stroke-width="1.5"></path><path stroke="#7630a0" stroke-linecap="round" stroke-linejoin="round" stroke-miterlimit="10" d="M13.078125 26.15625h-11.625" stroke-width="1.5"></path></svg>